# xmcd CD database file
#
# Track frame offsets:
#	182
#	13732
#	27837
#	42560
#	54977
#	68732
#	82807
#	94167
#	106937
#	120540
#	133025
#	146042
#	160490
#	173362
#
# Disc length: 2486 seconds
#
# Revision: 1
# Processed by: cddbd v1.5.2PL0 Copyright (c) Steve Scherf et al.
# Submitted via: CDex 1.99.1
#
DISCID=b209b40e
DTITLE=Various Artist - Mississippi Moaners 1927 - 1942
DYEAR=1991
DGENRE=Blues
TTITLE0=The New 'Frisco Train [Washington White]
TTITLE1=Down The Big Road Blues [Mattie Delaney]
TTITLE2=Travelling Mama Blues [Joe Calicott]
TTITLE3=Gas Man Blues [Mae Glover]
TTITLE4=Stand Up Suitcase Blues [Uncle Bud Walker]
TTITLE5=Special Rider Blues [Son House]
TTITLE6=Mississippi Moan [The Mississippi Moaner]
TTITLE7=Big Leg Blues [Mississippi John Hurt]
TTITLE8=Lonesome Atlanta Blues [Bobby Grant]
TTITLE9=Cherry Ball Blues [Skip James]
TTITLE10=Ham Hound Crave [Rube Lacy]
TTITLE11=Married Man Blues [Blind Willie Reynolds]
TTITLE12=Two Little Tommies Blues [Papa Harvey Hull]
TTITLE13=Devil Sent The Rain Blues [Charlie Patton]
EXTD=YEAR: 1991
EXTT0=
EXTT1=
EXTT2=
EXTT3=
EXTT4=
EXTT5=
EXTT6=
EXTT7=
EXTT8=
EXTT9=
EXTT10=
EXTT11=
EXTT12=
EXTT13=
PLAYORDER=
